<svg xmlns="http://www.w3.org/2000/svg" viewBox="0 0 512 512">
	<path d="M451.1 174.6c-3 2.3-55.4 31.8-55.4 97.5c0 76 66.7 102.9 68.7 103.5c-.3 1.6-10.6 36.8-35.2 72.7c-21.9 31.5-44.8 63-79.6 63s-43.8-20.2-84-20.2c-39.2 0-53.1 20.9-84.9 20.9s-54.1-29.2-79.6-65c-29.6-42.1-53.5-107.5-53.5-169.5c0-99.5 64.7-152.3 128.4-152.3c33.8 0 62.1 22.2 83.3 22.2c20.2 0 51.8-23.6 90.3-23.6c14.6 0 67 1.3 101.5 50.8m-119.8-93c15.9-18.9 27.2-45.1 27.2-71.3c0-3.6-.3-7.3-1-10.3c-25.9 1-56.7 17.3-75.3 38.8c-14.6 16.6-28.2 42.8-28.2 69.4c0 4 .7 8 1 9.3c1.6.3 4.3.7 7 .7c23.2-.1 52.4-15.6 69.3-36.6" />
</svg>
